HIERARCHY
ROOT Hips
{
	OFFSET -338.882294 -555.210510 88.995560
	CHANNELS 6 Xposition Yposition Zposition Zrotation Yrotation Xrotation
	JOINT Spine
	{
		OFFSET 0.000000 2.080078 8.814247
		CHANNELS 6 Xposition Yposition Zposition Zrotation Yrotation Xrotation
		JOINT Spine1
		{
			OFFSET 0.000000 0.000000 8.844139
			CHANNELS 6 Xposition Yposition Zposition Zrotation Yrotation Xrotation
			JOINT Spine2
			{
				OFFSET 0.000000 0.000000 11.682266
				CHANNELS 6 Xposition Yposition Zposition Zrotation Yrotation Xrotation
				JOINT Spine3
				{
					OFFSET 0.000000 0.000000 11.746704
					CHANNELS 6 Xposition Yposition Zposition Zrotation Yrotation Xrotation
					JOINT Neck
					{
						OFFSET 0.000000 0.000000 17.658264
						CHANNELS 6 Xposition Yposition Zposition Zrotation Yrotation Xrotation
						JOINT Neck1
						{
							OFFSET 0.000000 0.000000 5.101517
							CHANNELS 6 Xposition Yposition Zposition Zrotation Yrotation Xrotation
							JOINT Head
							{
								OFFSET 0.000000 0.000000 5.101517
								CHANNELS 6 Xposition Yposition Zposition Zrotation Yrotation Xrotation
								JOINT HeadEnd
								{
									OFFSET 0.000000 0.000000 11.655090
									CHANNELS 6 Xposition Yposition Zposition Zrotation Yrotation Xrotation
									End Site
									{
										OFFSET 0.000000 0.000000 0.100006
									}
								}
							}
						}
					}
					JOINT RightShoulder
					{
						OFFSET -2.625397 0.000000 11.175217
						CHANNELS 6 Xposition Yposition Zposition Zrotation Yrotation Xrotation
						JOINT RightArm
						{
							OFFSET 0.000000 0.000000 10.434723
							CHANNELS 6 Xposition Yposition Zposition Zrotation Yrotation Xrotation
							JOINT RightForeArm
							{
								OFFSET 0.000000 0.000000 29.628418
								CHANNELS 6 Xposition Yposition Zposition Zrotation Yrotation Xrotation
								JOINT RightHand
								{
									OFFSET 0.000000 0.000000 22.857605
									CHANNELS 6 Xposition Yposition Zposition Zrotation Yrotation Xrotation
									JOINT RightHandThumb1
									{
										OFFSET -2.867310 -2.944275 3.959564
										CHANNELS 6 Xposition Yposition Zposition Zrotation Yrotation Xrotation
										JOINT RightHandThumb2
										{
											OFFSET 0.000000 0.000000 3.350403
											CHANNELS 6 Xposition Yposition Zposition Zrotation Yrotation Xrotation
											JOINT RightHandThumb3
											{
												OFFSET 0.000000 0.000000 3.756516
												CHANNELS 6 Xposition Yposition Zposition Zrotation Yrotation Xrotation
												JOINT RightHandThumb4
												{
													OFFSET 0.000000 0.000000 3.147339
													CHANNELS 6 Xposition Yposition Zposition Zrotation Yrotation Xrotation
													End Site
													{
														OFFSET 0.000000 0.000000 0.100006
													}
												}
											}
										}
									}
									JOINT RightHandIndex1
									{
										OFFSET -0.086761 -2.345276 10.030899
										CHANNELS 6 Xposition Yposition Zposition Zrotation Yrotation Xrotation
										JOINT RightHandIndex2
										{
											OFFSET 0.000000 0.000000 4.061096
											CHANNELS 6 Xposition Yposition Zposition Zrotation Yrotation Xrotation
											JOINT RightHandIndex3
											{
												OFFSET 0.000000 0.000000 3.248871
												CHANNELS 6 Xposition Yposition Zposition Zrotation Yrotation Xrotation
												JOINT RightHandIndex4
												{
													OFFSET 0.000000 0.000000 2.639709
													CHANNELS 6 Xposition Yposition Zposition Zrotation Yrotation Xrotation
													End Site
													{
														OFFSET 0.000000 0.000000 0.100006
													}
												}
											}
										}
									}
									JOINT RightHandMiddle1
									{
										OFFSET 0.104095 -0.006775 9.502945
										CHANNELS 6 Xposition Yposition Zposition Zrotation Yrotation Xrotation
										JOINT RightHandMiddle2
										{
											OFFSET 0.000000 0.000000 4.568726
											CHANNELS 6 Xposition Yposition Zposition Zrotation Yrotation Xrotation
											JOINT RightHandMiddle3
											{
												OFFSET 0.000000 0.000000 3.654984
												CHANNELS 6 Xposition Yposition Zposition Zrotation Yrotation Xrotation
												JOINT RightHandMiddle4
												{
													OFFSET 0.000000 0.000000 2.741241
													CHANNELS 6 Xposition Yposition Zposition Zrotation Yrotation Xrotation
													End Site
													{
														OFFSET 0.000000 0.000000 0.100006
													}
												}
											}
										}
									}
									JOINT RightHandRing1
									{
										OFFSET 0.086761 2.267456 8.921707
										CHANNELS 6 Xposition Yposition Zposition Zrotation Yrotation Xrotation
										JOINT RightHandRing2
										{
											OFFSET 0.000000 0.000000 4.061096
											CHANNELS 6 Xposition Yposition Zposition Zrotation Yrotation Xrotation
											JOINT RightHandRing3
											{
												OFFSET 0.000000 0.000000 3.654984
												CHANNELS 6 Xposition Yposition Zposition Zrotation Yrotation Xrotation
												JOINT RightHandRing4
												{
													OFFSET 0.000000 0.000000 2.741241
													CHANNELS 6 Xposition Yposition Zposition Zrotation Yrotation Xrotation
													End Site
													{
														OFFSET 0.000000 0.000000 0.100006
													}
												}
											}
										}
									}
									JOINT RightHandPinky1
									{
										OFFSET -0.173492 4.467224 7.976990
										CHANNELS 6 Xposition Yposition Zposition Zrotation Yrotation Xrotation
										JOINT RightHandPinky2
										{
											OFFSET 0.000000 0.000000 3.350403
											CHANNELS 6 Xposition Yposition Zposition Zrotation Yrotation Xrotation
											JOINT RightHandPinky3
											{
												OFFSET 0.000000 0.000000 2.842758
												CHANNELS 6 Xposition Yposition Zposition Zrotation Yrotation Xrotation
												JOINT RightHandPinky4
												{
													OFFSET 0.000000 0.000000 2.639709
													CHANNELS 6 Xposition Yposition Zposition Zrotation Yrotation Xrotation
													End Site
													{
														OFFSET 0.000000 0.000000 0.100006
													}
												}
											}
										}
									}
									JOINT RightForeArmEnd
									{
										OFFSET 0.000000 0.000000 0.000000
										CHANNELS 6 Xposition Yposition Zposition Zrotation Yrotation Xrotation
										End Site
										{
											OFFSET 0.000000 0.000000 0.100006
										}
									}
								}
								JOINT RightArmEnd
								{
									OFFSET 0.000000 0.000000 0.000000
									CHANNELS 6 Xposition Yposition Zposition Zrotation Yrotation Xrotation
									End Site
									{
										OFFSET 0.000000 0.000000 0.100006
									}
								}
							}
						}
					}
					JOINT LeftShoulder
					{
						OFFSET 2.625397 0.000000 11.175217
						CHANNELS 6 Xposition Yposition Zposition Zrotation Yrotation Xrotation
						JOINT LeftArm
						{
							OFFSET 0.000000 0.000000 10.813629
							CHANNELS 6 Xposition Yposition Zposition Zrotation Yrotation Xrotation
							JOINT LeftForeArm
							{
								OFFSET 0.000000 0.000000 28.724777
								CHANNELS 6 Xposition Yposition Zposition Zrotation Yrotation Xrotation
								JOINT LeftHand
								{
									OFFSET 0.644379 0.328857 25.716171
									CHANNELS 6 Xposition Yposition Zposition Zrotation Yrotation Xrotation
									JOINT LeftHandThumb1
									{
										OFFSET 2.867310 -2.944275 3.959564
										CHANNELS 6 Xposition Yposition Zposition Zrotation Yrotation Xrotation
										JOINT LeftHandThumb2
										{
											OFFSET 0.000000 0.000000 3.350403
											CHANNELS 6 Xposition Yposition Zposition Zrotation Yrotation Xrotation
											JOINT LeftHandThumb3
											{
												OFFSET 0.000000 0.000000 3.756516
												CHANNELS 6 Xposition Yposition Zposition Zrotation Yrotation Xrotation
												JOINT LeftHandThumb4
												{
													OFFSET 0.000000 0.000000 3.100006
													CHANNELS 6 Xposition Yposition Zposition Zrotation Yrotation Xrotation
													End Site
													{
														OFFSET 0.000000 0.000000 0.100006
													}
												}
											}
										}
									}
									JOINT LeftHandIndex1
									{
										OFFSET 0.086761 -2.345276 10.030899
										CHANNELS 6 Xposition Yposition Zposition Zrotation Yrotation Xrotation
										JOINT LeftHandIndex2
										{
											OFFSET 0.000000 0.000000 4.061096
											CHANNELS 6 Xposition Yposition Zposition Zrotation Yrotation Xrotation
											JOINT LeftHandIndex3
											{
												OFFSET 0.000000 0.000000 3.248871
												CHANNELS 6 Xposition Yposition Zposition Zrotation Yrotation Xrotation
												JOINT LeftHandIndex4
												{
													OFFSET 0.000000 0.000000 2.639709
													CHANNELS 6 Xposition Yposition Zposition Zrotation Yrotation Xrotation
													End Site
													{
														OFFSET 0.000000 0.000000 0.100006
													}
												}
											}
										}
									}
									JOINT LeftHandMiddle1
									{
										OFFSET -0.104095 -0.006775 9.502945
										CHANNELS 6 Xposition Yposition Zposition Zrotation Yrotation Xrotation
										JOINT LeftHandMiddle2
										{
											OFFSET 0.000000 0.000000 4.568726
											CHANNELS 6 Xposition Yposition Zposition Zrotation Yrotation Xrotation
											JOINT LeftHandMiddle3
											{
												OFFSET 0.000000 0.000000 3.654984
												CHANNELS 6 Xposition Yposition Zposition Zrotation Yrotation Xrotation
												JOINT LeftHandMiddle4
												{
													OFFSET 0.000000 0.000000 2.741241
													CHANNELS 6 Xposition Yposition Zposition Zrotation Yrotation Xrotation
													End Site
													{
														OFFSET 0.000000 0.000000 0.100006
													}
												}
											}
										}
									}
									JOINT LeftHandRing1
									{
										OFFSET -0.086761 2.267456 8.921707
										CHANNELS 6 Xposition Yposition Zposition Zrotation Yrotation Xrotation
										JOINT LeftHandRing2
										{
											OFFSET 0.000000 0.000000 4.061096
											CHANNELS 6 Xposition Yposition Zposition Zrotation Yrotation Xrotation
											JOINT LeftHandRing3
											{
												OFFSET 0.000000 0.000000 3.654984
												CHANNELS 6 Xposition Yposition Zposition Zrotation Yrotation Xrotation
												JOINT LeftHandRing4
												{
													OFFSET 0.000000 0.000000 2.741241
													CHANNELS 6 Xposition Yposition Zposition Zrotation Yrotation Xrotation
													End Site
													{
														OFFSET 0.000000 0.000000 0.100006
													}
												}
											}
										}
									}
									JOINT LeftHandPinky1
									{
										OFFSET 0.173492 4.467224 7.976990
										CHANNELS 6 Xposition Yposition Zposition Zrotation Yrotation Xrotation
										JOINT LeftHandPinky2
										{
											OFFSET 0.000000 0.000000 3.350403
											CHANNELS 6 Xposition Yposition Zposition Zrotation Yrotation Xrotation
											JOINT LeftHandPinky3
											{
												OFFSET 0.000000 0.000000 2.842758
												CHANNELS 6 Xposition Yposition Zposition Zrotation Yrotation Xrotation
												JOINT LeftHandPinky4
												{
													OFFSET 0.000000 0.000000 2.639709
													CHANNELS 6 Xposition Yposition Zposition Zrotation Yrotation Xrotation
													End Site
													{
														OFFSET 0.000000 0.000000 0.100006
													}
												}
											}
										}
									}
									JOINT LeftForeArmEnd
									{
										OFFSET 0.000000 0.000000 0.000000
										CHANNELS 6 Xposition Yposition Zposition Zrotation Yrotation Xrotation
										End Site
										{
											OFFSET 0.000000 0.000000 0.100006
										}
									}
								}
								JOINT LeftArmEnd
								{
									OFFSET 0.000000 0.000000 0.000000
									CHANNELS 6 Xposition Yposition Zposition Zrotation Yrotation Xrotation
									End Site
									{
										OFFSET 0.000000 0.000000 0.100006
									}
								}
							}
						}
					}
				}
			}
		}
	}
	JOINT RightUpLeg
	{
		OFFSET -11.289948 0.000000 0.000000
		CHANNELS 6 Xposition Yposition Zposition Zrotation Yrotation Xrotation
		JOINT RightLeg
		{
			OFFSET 0.000000 0.000000 -38.200321
			CHANNELS 6 Xposition Yposition Zposition Zrotation Yrotation Xrotation
			JOINT RightFoot
			{
				OFFSET 0.000000 0.000000 -39.900856
				CHANNELS 6 Xposition Yposition Zposition Zrotation Yrotation Xrotation
				JOINT RightToeBase
				{
					OFFSET 0.000000 -15.261658 0.000001
					CHANNELS 6 Xposition Yposition Zposition Zrotation Yrotation Xrotation
					JOINT RightToeBaseEnd
					{
						OFFSET 0.000000 -7.370728 0.000001
						CHANNELS 6 Xposition Yposition Zposition Zrotation Yrotation Xrotation
						End Site
						{
							OFFSET 0.000000 0.000000 0.100000
						}
					}
				}
				JOINT RightLegEnd
				{
					OFFSET 0.000000 0.000000 0.000000
					CHANNELS 6 Xposition Yposition Zposition Zrotation Yrotation Xrotation
					End Site
					{
						OFFSET 0.000000 0.000000 0.100000
					}
				}
			}
			JOINT RightUpLegEnd
			{
				OFFSET 0.000000 0.000000 0.000000
				CHANNELS 6 Xposition Yposition Zposition Zrotation Yrotation Xrotation
				End Site
				{
					OFFSET 0.000000 0.000000 0.099998
				}
			}
		}
	}
	JOINT LeftUpLeg
	{
		OFFSET 11.315674 0.000000 0.000000
		CHANNELS 6 Xposition Yposition Zposition Zrotation Yrotation Xrotation
		JOINT LeftLeg
		{
			OFFSET 0.000000 0.000000 -38.200321
			CHANNELS 6 Xposition Yposition Zposition Zrotation Yrotation Xrotation
			JOINT LeftFoot
			{
				OFFSET 0.000000 0.000000 -39.900856
				CHANNELS 6 Xposition Yposition Zposition Zrotation Yrotation Xrotation
				JOINT LeftToeBase
				{
					OFFSET 0.000000 -15.261658 0.000001
					CHANNELS 6 Xposition Yposition Zposition Zrotation Yrotation Xrotation
					JOINT LeftToeBaseEnd
					{
						OFFSET 0.000000 -7.539978 0.000001
						CHANNELS 6 Xposition Yposition Zposition Zrotation Yrotation Xrotation
						End Site
						{
							OFFSET 0.000000 0.000000 0.100000
						}
					}
				}
				JOINT LeftLegEnd
				{
					OFFSET 0.000000 0.000000 0.000000
					CHANNELS 6 Xposition Yposition Zposition Zrotation Yrotation Xrotation
					End Site
					{
						OFFSET 0.000000 0.000000 0.100000
					}
				}
			}
			JOINT LeftUpLegEnd
			{
				OFFSET 0.000000 0.000000 0.000000
				CHANNELS 6 Xposition Yposition Zposition Zrotation Yrotation Xrotation
				End Site
				{
					OFFSET 0.000000 0.000000 0.099998
				}
			}
		}
	}
}
MOTION
Frames: 2
Frame Time: 0.016667
3.574158 -15.880310 85.789185 6.219063 4.521910 -15.853492 0.000000 2.080090 8.814236 -1.408482 -5.570849 11.559535 0.000013 0.000021 8.844132 -0.731319 -0.836734 5.094639 0.000001 -0.000010 11.682247 -5.144320 -1.699113 9.588004 -0.000008 -0.000006 11.746700 -2.208072 -4.116280 10.491817 -0.000008 -0.000029 17.658255 1.432321 -0.007268 -0.704111 0.000012 0.000015 5.101515 2.334923 1.407788 -5.405924 0.000005 -0.000020 5.101542 -1.234669 4.756914 -5.158278 -0.000001 0.000064 11.655074 -0.000000 0.000000 0.000000 -2.625404 -0.000038 11.175203 16.212714 -69.522733 0.443897 -0.000015 0.000006 10.434719 -71.040244 -35.726554 65.766143 -0.000004 -0.000023 29.628407 15.260830 0.919423 107.347098 -0.000027 -0.000021 22.857586 7.800024 -29.773693 -5.990508 -2.867310 -2.944305 3.959549 31.715946 -16.574074 52.574186 -0.000034 0.000000 3.350376 -11.148168 7.773149 -20.314574 0.000000 -0.000011 3.756485 -7.443093 5.826086 -13.926021 0.000002 -0.000002 3.147331 0.000001 0.000001 -0.000000 -0.086773 -2.345249 10.030910 -9.697484 -6.036973 18.168990 0.000008 -0.000009 4.061095 0.451780 -6.066677 0.856155 0.000003 -0.000030 3.248889 -0.048015 -6.066680 0.856123 -0.000002 0.000001 2.639717 -0.000000 0.000001 -0.000000 0.104109 -0.006784 9.502953 -4.568863 -5.627413 11.307405 0.000002 -0.000014 4.568726 0.488442 -4.474689 0.235154 0.000014 -0.000029 3.655008 -0.010656 -4.474089 0.235086 0.000008 0.000001 2.741262 -0.000000 -0.000000 0.000001 0.086770 2.267439 8.921732 3.902313 -3.687795 3.900161 0.000006 0.000018 4.061095 -0.995878 -2.391473 -0.146401 -0.000005 0.000029 3.654987 0.004483 -2.391455 -0.146406 0.000003 0.000001 2.741250 -0.000000 0.000001 -0.000000 -0.173487 4.467257 7.976988 13.067700 0.715571 -1.313386 0.000008 0.000026 3.350427 -2.012709 -0.000703 0.000003 -0.000011 0.000009 2.842753 -0.016814 -0.000000 -0.000003 0.000000 0.000007 2.639718 -0.000000 0.000000 0.000001 0.000001 -0.000010 -0.000013 0.000000 -0.000000 -0.000000 0.000006 0.000001 0.000028 0.000000 0.000002 -0.000000 2.625404 -0.000019 11.175214 -17.262325 67.304506 -0.223380 0.000019 -0.000011 10.813639 93.996237 71.724629 92.732625 -0.000027 -0.000015 28.724770 -20.798472 -0.395133 79.115796 0.644341 0.328857 25.716156 -11.128977 26.218204 -27.303562 2.867310 -2.944305 3.959579 -38.909856 37.811675 22.969767 0.000019 -0.000019 3.350424 53.890053 1.261558 -92.481506 0.000031 0.000000 3.756527 38.804029 -8.886658 -65.115718 0.000009 0.000002 3.099999 -0.000000 0.000000 -0.000001 0.086742 -2.345302 10.030888 169.028590 12.043345 -6.397534 -0.000008 0.000000 4.061104 25.778321 117.941821 15.365016 0.000031 0.000004 3.248871 25.278312 117.941821 15.365028 -0.000014 0.000008 2.639735 -0.000001 -0.000001 -0.000002 -0.104118 -0.006781 9.502956 175.204092 7.157903 -20.897070 -0.000008 0.000018 4.568708 9.477709 120.168504 5.172785 -0.000011 0.000003 3.654995 8.977746 120.168463 5.172807 0.000034 0.000015 2.741221 -0.000001 -0.000003 0.000002 -0.086769 2.267454 8.921709 4.744155 1.318745 0.829306 -0.000015 -0.000030 4.061100 -0.998418 0.978911 0.059899 -0.000004 0.000011 3.654993 0.001694 0.978877 0.059898 0.000001 0.000003 2.741246 -0.000001 -0.000000 0.000001 0.173503 4.467235 7.977003 13.491131 2.968127 -0.821536 -0.000011 -0.000005 3.350413 -1.993947 1.888942 0.367307 -0.000005 -0.000006 2.842779 0.006062 1.888926 0.367297 -0.000016 0.000001 2.639711 -0.000001 -0.000001 0.000001 -0.000004 -0.000027 0.000015 0.000002 0.000001 -0.000001 0.000023 -0.000033 -0.000011 -0.000005 -0.000000 -0.000001 -11.289951 -0.000041 -0.000004 -18.720198 1.862006 5.394254 -0.000038 0.000012 -38.200329 -0.148600 0.074272 26.559242 -0.000006 -0.000004 -39.900856 -19.802510 -2.482989 10.594950 0.000017 -15.261749 0.000021 1.262985 0.609667 -19.007667 -0.000028 -7.370733 -0.000000 0.000001 -0.000001 -0.000001 -0.000033 -0.000056 0.000004 -0.000001 0.000000 0.000000 -0.000027 -0.000007 -0.000002 0.000001 0.000000 0.000000 11.315668 -0.000032 -0.000010 -7.823399 -19.907625 0.721488 -0.000016 0.000024 -38.200336 -0.550775 0.318147 30.011622 -0.000004 -0.000055 -39.900860 13.825198 -4.642640 18.938438 -0.000043 -15.261743 0.000043 1.426869 -1.428779 -22.458924 -0.000037 -7.539979 0.000002 0.000000 0.000000 -0.000000 -0.000022 -0.000003 0.000004 0.000000 -0.000000 -0.000001 -0.000027 0.000003 -0.000003 -0.000000 0.000001 -0.000000 
2.991943 -15.791931 85.449440 7.610458 4.024012 -17.204970 -0.000005 2.080062 8.814243 -1.376685 -5.447530 12.434662 -0.000004 -0.000023 8.844143 -0.639219 -0.843935 5.451889 -0.000010 -0.000019 11.682258 -4.676434 -1.444869 10.130392 -0.000021 -0.000016 11.746698 -1.959724 -3.668154 10.845972 0.000002 0.000028 17.658262 1.239943 0.044888 -1.186486 0.000011 -0.000011 5.101533 2.029119 1.484941 -5.710833 0.000017 0.000025 5.101513 -1.297703 4.842902 -4.840395 -0.000002 0.000006 11.655102 -0.000000 -0.000000 0.000000 -2.625374 -0.000031 11.175189 17.128579 -68.425573 0.433336 0.000000 0.000010 10.434731 -71.296438 -34.156530 65.775234 0.000008 -0.000015 29.628410 15.506951 0.829815 107.454599 -0.000023 -0.000112 22.857594 7.718669 -29.721585 -6.264813 -2.867298 -2.944275 3.959564 31.690466 -16.746939 52.306733 -0.000046 -0.000015 3.350407 -11.527925 7.943514 -20.956253 0.000002 0.000004 3.756504 -7.690527 5.973576 -14.361023 -0.000013 0.000004 3.147338 -0.000000 0.000001 0.000000 -0.086750 -2.345257 10.030907 -9.863579 -6.816709 17.659251 -0.000016 0.000015 4.061123 0.446945 -6.559449 0.925941 -0.000002 0.000020 3.248889 -0.053068 -6.559142 0.925934 -0.000004 0.000003 2.639715 -0.000000 -0.000001 0.000000 0.104097 -0.006763 9.502964 -4.657397 -6.104208 11.074061 0.000010 0.000015 4.568743 0.487664 -4.801971 0.252424 -0.000003 0.000025 3.654996 -0.011974 -4.802582 0.252354 0.000006 -0.000000 2.741254 0.000000 0.000002 -0.000000 0.086772 2.267448 8.921741 3.912417 -3.642467 4.192530 0.000023 -0.000013 4.061123 -0.995157 -2.343160 -0.143477 -0.000002 0.000022 3.654992 0.004890 -2.343178 -0.143467 0.000036 0.000001 2.741266 0.000000 0.000001 -0.000001 -0.173490 4.467228 7.976998 13.183921 1.048127 -0.060776 -0.000006 -0.000026 3.350398 -2.012984 0.051959 -0.001834 -0.000014 0.000021 2.842749 -0.018054 -0.028589 0.000004 -0.000004 0.000004 2.639704 -0.000000 0.000000 0.000001 0.000001 -0.000001 -0.000004 -0.000000 0.000000 -0.000002 -0.000004 -0.000003 0.000002 0.000000 0.000000 -0.000000 2.625412 -0.000004 11.175231 -17.934241 67.105010 -0.201633 0.000006 0.000031 10.813630 91.690741 67.984035 92.695134 -0.000040 0.000008 28.724861 -21.788660 -0.605787 82.986150 0.644354 0.328865 25.716171 -11.611450 26.485874 -27.310716 2.867271 -2.944275 3.959579 -38.746864 37.624046 23.248282 0.000014 0.000006 3.350399 53.609369 0.958611 -91.897156 -0.000008 0.000015 3.756550 38.531020 -8.984229 -64.663737 -0.000003 0.000001 3.100002 -0.000000 -0.000000 0.000000 0.086773 -2.345278 10.030880 168.885129 12.680652 -6.637687 0.000015 0.000015 4.061111 26.047936 117.490168 15.669584 0.000038 0.000017 3.248871 25.547986 117.490141 15.669629 0.000014 0.000011 2.639711 -0.000001 0.000001 0.000003 -0.104107 -0.006786 9.502987 175.032559 8.076573 -21.111097 0.000023 0.000009 4.568707 9.598922 119.511303 5.312496 -0.000027 0.000016 3.654976 9.098935 119.511276 5.312525 -0.000013 0.000008 2.741227 -0.000001 0.000001 -0.000003 -0.086777 2.267486 8.921726 4.443595 -0.397706 1.023191 -0.000009 0.000029 4.061132 -1.002603 0.000003 0.000006 -0.000011 -0.000008 3.655020 -0.002886 0.000001 0.000002 0.000002 0.000013 2.741267 -0.000002 -0.000002 -0.000001 0.173501 4.467198 7.977005 13.064900 0.575579 -0.829211 -0.000010 0.000010 3.350422 -2.000060 0.261155 0.050761 0.000010 0.000025 2.842798 -0.000012 0.261170 0.050771 0.000000 -0.000021 2.639689 0.000004 -0.000002 0.000003 0.000011 0.000015 0.000011 -0.000002 -0.000003 -0.000003 0.000021 0.000005 -0.000019 -0.000001 -0.000005 0.000004 -11.289953 -0.000076 0.000010 -19.500159 2.641120 5.545256 -0.000032 -0.000005 -38.200306 -0.021794 0.012041 28.928436 -0.000014 -0.000004 -39.900875 -20.417278 -2.485411 9.037951 0.000011 -15.261709 0.000019 1.233082 0.536015 -18.450870 0.000037 -7.370722 0.000001 -0.000001 -0.000000 -0.000000 -0.000014 -0.000012 -0.000001 0.000002 0.000001 -0.000002 -0.000003 -0.000007 -0.000008 0.000001 0.000000 0.000000 11.315639 0.000018 -0.000017 -7.163346 -19.280710 0.440115 -0.000038 -0.000001 -38.200329 -0.541390 0.327601 31.178106 -0.000023 -0.000055 -39.900856 12.645234 -4.914137 18.289752 -0.000036 -15.261787 0.000028 1.401421 -1.331201 -22.553421 -0.000030 -7.539974 0.000000 -0.000001 -0.000003 0.000000 -0.000030 -0.000012 0.000001 0.000002 -0.000002 0.000003 -0.000036 -0.000009 -0.000013 0.000002 0.000002 -0.000002 
